<svg width="24" height="24" viewBox="0 0 24 24" fill="none" xmlns="http://www.w3.org/2000/svg">
<path opacity="0.5" fill-rule="evenodd" clip-rule="evenodd" d="M12.0004 0C18.6165 0 24.0003 5.38257 24.0003 12C24.0003 18.617 18.6165 24 12.0004 24C5.38257 24 0 18.617 0 12C0 5.38257 5.38257 0 12.0004 0ZM1.72221 12C1.72221 17.666 6.33352 22.2782 12.0004 22.2782C17.6663 22.2782 22.2777 17.666 22.2777 12C22.2777 6.33316 17.6663 1.72227 12.0004 1.72227C6.33352 1.72227 1.72221 6.33316 1.72221 12ZM13.2063 12.0371L16.9168 15.7586C17.2507 16.0951 17.2499 16.6374 16.9151 16.9714C16.7476 17.1371 16.5293 17.2213 16.31 17.2213C16.0899 17.2213 15.8698 17.1371 15.7023 16.9697L11.9884 13.2422L8.3035 16.8873C8.1369 17.0513 7.91767 17.1345 7.70009 17.1345C7.47915 17.1345 7.25986 17.0496 7.0916 16.8796C6.75845 16.543 6.76184 16.0016 7.09839 15.6685L10.7782 12.0286L7.12727 8.367C6.79415 8.03213 6.79415 7.48993 7.12899 7.15465C7.46465 6.81984 8.00691 6.82153 8.34171 7.15637L11.9969 10.8231L15.7074 7.15294C16.044 6.81981 16.5879 6.82238 16.9202 7.15935C17.2525 7.4959 17.2499 8.03895 16.9134 8.37122L13.2063 12.0371Z" fill="#777E90"/>
</svg>
