<svg width="24" height="24" viewBox="0 0 24 24" fill="none" xmlns="http://www.w3.org/2000/svg">
<path fill-rule="evenodd" clip-rule="evenodd" d="M2.78 11.25H7.282C7.48293 8.24107 8.5275 5.34963 10.296 2.907C8.30191 3.28151 6.48615 4.30093 5.12812 5.80838C3.7701 7.31583 2.94507 9.22778 2.78 11.25ZM12 3.149C10.1261 5.45751 9.00444 8.2847 8.786 11.25H15.214C14.9956 8.2847 13.8739 5.45751 12 3.149ZM15.214 12.75C14.9956 15.7153 13.8739 18.5425 12 20.851C10.1261 18.5425 9.00444 15.7153 8.786 12.75H15.214ZM7.282 12.75H2.78C2.94507 14.7722 3.7701 16.6842 5.12812 18.1916C6.48615 19.6991 8.30191 20.7185 10.296 21.093C8.52755 18.6503 7.48299 15.7589 7.282 12.75ZM13.704 21.093C15.4725 18.6503 16.517 15.7589 16.718 12.75H21.22C21.0549 14.7722 20.2299 16.6842 18.8719 18.1916C17.5139 19.6991 15.6981 20.7185 13.704 21.093ZM21.22 11.25H16.718C16.5171 8.24107 15.4725 5.34963 13.704 2.907C15.6981 3.28151 17.5139 4.30093 18.8719 5.80838C20.2299 7.31583 21.0549 9.22778 21.22 11.25ZM1.25 12C1.25 6.063 6.063 1.25 12 1.25C17.937 1.25 22.75 6.063 22.75 12C22.75 17.937 17.937 22.75 12 22.75C6.063 22.75 1.25 17.937 1.25 12Z" fill="white"/>
</svg>
